<svg width="278" height="271" viewBox="0 0 278 271" fill="none" xmlns="http://www.w3.org/2000/svg">
<rect y="9" width="100" height="100" rx="50" fill="white"/>
<rect x="0.5" y="9.5" width="99" height="99" rx="49.5" stroke="#191825" stroke-opacity="0.1"/>
<path d="M44.4142 58H58C58.5523 58 59 58.4478 59 59C59 59.5523 58.5523 60 58 60H44.4142L47.6569 63.2427C48.0474 63.6332 48.0474 64.2664 47.6569 64.6569C47.2663 65.0474 46.6332 65.0474 46.2426 64.6569L42 60.4143C41.219 59.6332 41.219 58.3669 42 57.5858L46.2426 53.3432C46.6332 52.9527 47.2663 52.9527 47.6569 53.3432C48.0474 53.7337 48.0474 54.3669 47.6569 54.7574L44.4142 58Z" fill="#191825"/>
<g filter="url(#filter0_ddddd_1745_5384)">
<rect width="100" height="100" rx="50" transform="matrix(-1 0 0 1 232 9)" fill="#5D50C6"/>
<path d="M187.586 58H174C173.448 58 173 58.4478 173 59C173 59.5523 173.448 60 174 60H187.586L184.343 63.2427C183.953 63.6332 183.953 64.2664 184.343 64.6569C184.734 65.0474 185.367 65.0474 185.757 64.6569L190 60.4143C190.781 59.6332 190.781 58.3669 190 57.5858L185.757 53.3432C185.367 52.9527 184.734 52.9527 184.343 53.3432C183.953 53.7337 183.953 54.3669 184.343 54.7574L187.586 58Z" fill="white"/>
</g>
<defs>
<filter id="filter0_ddddd_1745_5384" x="86" y="0" width="192" height="271" filterUnits="userSpaceOnUse" color-interpolation-filters="sRGB">
<feFlood flood-opacity="0" result="BackgroundImageFix"/>
<feColorMatrix in="SourceAlpha" type="matrix" values="0 0 0 0 0 0 0 0 0 0 0 0 0 0 0 0 0 0 127 0" result="hardAlpha"/>
<feOffset/>
<feColorMatrix type="matrix" values="0 0 0 0 0 0 0 0 0 0 0 0 0 0 0 0 0 0 0.08 0"/>
<feBlend mode="normal" in2="BackgroundImageFix" result="effect1_dropShadow_1745_5384"/>
<feColorMatrix in="SourceAlpha" type="matrix" values="0 0 0 0 0 0 0 0 0 0 0 0 0 0 0 0 0 0 127 0" result="hardAlpha"/>
<feOffset dy="7"/>
<feGaussianBlur stdDeviation="8"/>
<feColorMatrix type="matrix" values="0 0 0 0 0 0 0 0 0 0 0 0 0 0 0 0 0 0 0.07 0"/>
<feBlend mode="normal" in2="effect1_dropShadow_1745_5384" result="effect2_dropShadow_1745_5384"/>
<feColorMatrix in="SourceAlpha" type="matrix" values="0 0 0 0 0 0 0 0 0 0 0 0 0 0 0 0 0 0 127 0" result="hardAlpha"/>
<feOffset dy="29"/>
<feGaussianBlur stdDeviation="14.5"/>
<feColorMatrix type="matrix" values="0 0 0 0 0 0 0 0 0 0 0 0 0 0 0 0 0 0 0.06 0"/>
<feBlend mode="normal" in2="effect2_dropShadow_1745_5384" result="effect3_dropShadow_1745_5384"/>
<feColorMatrix in="SourceAlpha" type="matrix" values="0 0 0 0 0 0 0 0 0 0 0 0 0 0 0 0 0 0 127 0" result="hardAlpha"/>
<feOffset dy="65"/>
<feGaussianBlur stdDeviation="19.5"/>
<feColorMatrix type="matrix" values="0 0 0 0 0 0 0 0 0 0 0 0 0 0 0 0 0 0 0.04 0"/>
<feBlend mode="normal" in2="effect3_dropShadow_1745_5384" result="effect4_dropShadow_1745_5384"/>
<feColorMatrix in="SourceAlpha" type="matrix" values="0 0 0 0 0 0 0 0 0 0 0 0 0 0 0 0 0 0 127 0" result="hardAlpha"/>
<feOffset dy="116"/>
<feGaussianBlur stdDeviation="23"/>
<feColorMatrix type="matrix" values="0 0 0 0 0 0 0 0 0 0 0 0 0 0 0 0 0 0 0.01 0"/>
<feBlend mode="normal" in2="effect4_dropShadow_1745_5384" result="effect5_dropShadow_1745_5384"/>
<feBlend mode="normal" in="SourceGraphic" in2="effect5_dropShadow_1745_5384" result="shape"/>
</filter>
</defs>
</svg>
